<?xml version="1.0" encoding="UTF-8" standalone="no"?>
<!-- Created with Inkscape (http://www.inkscape.org/) -->

<svg
   xmlns:dc="http://purl.org/dc/elements/1.1/"
   xmlns:cc="http://creativecommons.org/ns#"
   xmlns:rdf="http://www.w3.org/1999/02/22-rdf-syntax-ns#"
   xmlns:svg="http://www.w3.org/2000/svg"
   xmlns="http://www.w3.org/2000/svg"
   xmlns:sodipodi="http://sodipodi.sourceforge.net/DTD/sodipodi-0.dtd"
   xmlns:inkscape="http://www.inkscape.org/namespaces/inkscape"
   width="524.40942"
   height="744.09448"
   id="svg2"
   version="1.1"
   inkscape:version="0.48.5 r10040"
   sodipodi:docname="New document 1">
  <defs
     id="defs4" />
  <sodipodi:namedview
     id="base"
     pagecolor="#000000"
     bordercolor="#666666"
     borderopacity="1.0"
     inkscape:pageopacity="0.3254902"
     inkscape:pageshadow="2"
     inkscape:zoom="0.24748737"
     inkscape:cx="-11.621517"
     inkscape:cy="922.05038"
     inkscape:document-units="mm"
     inkscape:current-layer="layer1"
     showgrid="false"
     inkscape:window-width="1920"
     inkscape:window-height="1057"
     inkscape:window-x="1912"
     inkscape:window-y="-8"
     inkscape:window-maximized="1" />
  <metadata
     id="metadata7">
    <rdf:RDF>
      <cc:Work
         rdf:about="">
        <dc:format>image/svg+xml</dc:format>
        <dc:type
           rdf:resource="http://purl.org/dc/dcmitype/StillImage" />
        <dc:title></dc:title>
      </cc:Work>
    </rdf:RDF>
  </metadata>
  <g
     inkscape:label="Layer 1"
     inkscape:groupmode="layer"
     id="layer1"
     transform="translate(0,-308.26769)">
    <rect
       style="fill:#ff7f2a;fill-opacity:1;stroke:none"
       id="rect2908"
       width="595.27557"
       height="885.82678"
       x="-1162.3279"
       y="-681.33057"
       rx="35.433071"
       ry="35.433071" />
    <g
       id="g2916"
       transform="translate(-862.62327,-600.61232)">
      <path
         transform="matrix(0.12895937,0,0,0.12895937,-133.74236,46.604253)"
         d="m -16.162437,-369.09363 c 0,37.93665 -30.753729,68.69038 -68.690377,68.69038 -37.936646,0 -68.690376,-30.75373 -68.690376,-68.69038 0,-37.93665 30.75373,-68.69037 68.690376,-68.69037 37.936648,0 68.690377,30.75372 68.690377,68.69037 z"
         sodipodi:ry="68.690376"
         sodipodi:rx="68.690376"
         sodipodi:cy="-369.09363"
         sodipodi:cx="-84.852814"
         id="path2910"
         style="fill:#000000;fill-opacity:1;stroke:none"
         sodipodi:type="arc" />
      <path
         sodipodi:type="arc"
         style="fill:#000000;fill-opacity:1;stroke:none"
         id="path2912"
         sodipodi:cx="-84.852814"
         sodipodi:cy="-369.09363"
         sodipodi:rx="68.690376"
         sodipodi:ry="68.690376"
         d="m -16.162437,-369.09363 c 0,37.93665 -30.753729,68.69038 -68.690377,68.69038 -37.936646,0 -68.690376,-30.75373 -68.690376,-68.69038 0,-37.93665 30.75373,-68.69037 68.690376,-68.69037 37.936648,0 68.690377,30.75372 68.690377,68.69037 z"
         transform="matrix(0.12895937,0,0,0.12895937,151.49385,46.604253)" />
    </g>
    <rect
       style="fill:#ff7f2a;fill-opacity:1;stroke:none"
       id="rect2914"
       width="285.23621"
       height="36.36549"
       x="-1052.812"
       y="-788.13574" />
    <rect
       ry="35.433071"
       rx="35.433071"
       y="-675.26965"
       x="-364.30734"
       height="885.82678"
       width="595.27557"
       id="rect2920"
       style="fill:#ff7f2a;fill-opacity:1;stroke:none" />
    <g
       transform="translate(-64.60276,-594.55141)"
       id="g2922">
      <path
         sodipodi:type="arc"
         style="fill:#000000;fill-opacity:1;stroke:none"
         id="path2924"
         sodipodi:cx="-84.852814"
         sodipodi:cy="-369.09363"
         sodipodi:rx="68.690376"
         sodipodi:ry="68.690376"
         d="m -16.162437,-369.09363 c 0,37.93665 -30.753729,68.69038 -68.690377,68.69038 -37.936646,0 -68.690376,-30.75373 -68.690376,-68.69038 0,-37.93665 30.75373,-68.69037 68.690376,-68.69037 37.936648,0 68.690377,30.75372 68.690377,68.69037 z"
         transform="matrix(0.12895937,0,0,0.12895937,-133.74236,46.604253)" />
      <path
         transform="matrix(0.12895937,0,0,0.12895937,151.49385,46.604253)"
         d="m -16.162437,-369.09363 c 0,37.93665 -30.753729,68.69038 -68.690377,68.69038 -37.936646,0 -68.690376,-30.75373 -68.690376,-68.69038 0,-37.93665 30.75373,-68.69037 68.690376,-68.69037 37.936648,0 68.690377,30.75372 68.690377,68.69037 z"
         sodipodi:ry="68.690376"
         sodipodi:rx="68.690376"
         sodipodi:cy="-369.09363"
         sodipodi:cx="-84.852814"
         id="path2926"
         style="fill:#000000;fill-opacity:1;stroke:none"
         sodipodi:type="arc" />
    </g>
  </g>
</svg>
